
<!-- first img -->

<svg version="1.1" id="Layer_1" x="0px" y="0px" width="400px" height="400px" viewBox="0 0 400 400" enableBackground="new 0 0 400 400">
<linearGradient id="SVGID_1_" gradientUnits="userSpaceOnUse" x1="148.4092" y1="296.5986" x2="187.3405" y2="329.2659">
	<stop  offset="0" stopColor="#27AAE1"/>
	<stop  offset="1" stopColor="#1C75BC"/>
</linearGradient>
<path fill="url(#SVGID_1_)" d="M209.092,303.344c-12.422-12.755-29.771-20.688-48.983-20.688v68.387L209.092,303.344z"/>
<path fill="#3399CC" stroke="#3399CC" strokeWidth="0.25" strokeMiterlimit="10" d="M333.908,157.072
	c4.148,3.961,18.369-1.499,31.24-5.692l0.082-0.08l14.163-36.344c-7.222-15.206-16.317-29.346-26.992-42.125l-12.166,31.218
	C346.108,112.367,326.768,150.256,333.908,157.072z"/>
<path fill="#5CC0EB" stroke="#5CC0EB" strokeWidth="0.25" strokeMiterlimit="10" d="M289.04,122.918
	c8.813,5.269,42.285-25.896,50.426-19.698c0.298,0.228,0.547,0.514,0.77,0.829l12.166-31.218
	c-15.013-17.973-33.138-33.255-53.557-45.003l-16.153,41.45C291.702,74.05,280.33,117.711,289.04,122.918z"/>
<path fill="#71C8F1" stroke="#71C8F1" strokeWidth="0.25" strokeMiterlimit="10" d="M219.34,48.706
	c10.117,2.055,8.711,47.774,18.398,50.914c9.8,3.176,35.476-34.664,44.765-30.443c0.065,0.029,0.125,0.067,0.188,0.102l16.153-41.45
	C279.359,16.617,257.791,8.622,234.863,4.56l-17.23,44.212C218.221,48.626,218.791,48.595,219.34,48.706z"/>
<path fill="#5CC0EB" stroke="#5CC0EB" strokeWidth="0.25" strokeMiterlimit="10" d="M160.108,48.646
	c7.58,12.103,14.613,39.069,22.418,39.758c9.737,0.856,25.048-37.143,35.106-39.632l17.23-44.212
	C223.544,2.554,211.895,1.505,200,1.505c-7.437,0-14.773,0.423-21.997,1.219l-17.895,45.918V48.646z"/>
<linearGradient id="SVGID_2_" gradientUnits="userSpaceOnUse" x1="126.1123" y1="89.1611" x2="297.021" y2="232.5706">
	<stop  offset="0" stopColor="#58595B"/>
	<stop  offset="1" stopColor="#414042"/>
</linearGradient>
<path fill="url(#SVGID_2_)" stroke="#686868" strokeWidth="0.25" strokeMiterlimit="10" d="M209.092,303.344L365.148,151.38
	c-12.871,4.193-27.092,9.653-31.24,5.692c-7.141-6.816,12.2-44.705,6.327-53.023l0,0c-0.223-0.315-0.472-0.602-0.77-0.829
	c-8.141-6.197-41.612,24.967-50.426,19.698c-8.71-5.207,2.662-48.868-6.349-53.64l0,0c-0.063-0.034-0.123-0.072-0.188-0.102
	c-9.289-4.221-34.965,33.619-44.765,30.443c-9.688-3.14-8.281-48.859-18.398-50.914c-0.549-0.111-1.119-0.08-1.707,0.065l0,0
	c-10.059,2.489-25.369,40.488-35.106,39.632c-7.805-0.688-14.838-27.655-22.418-39.758v234.011
	C179.32,282.656,196.67,290.589,209.092,303.344z"/>
<path fill="#333333" d="M386.141,130.937c-2.021-5.443-4.274-10.774-6.747-15.98L365.23,151.3l-0.024,0.061
	c-0.019,0.007-0.038,0.013-0.058,0.02L209.092,303.344l-48.983,47.699v-68.387V48.646l-0.001-0.002l0.001-0.002l17.895-45.918
	c-6.05,0.668-12.021,1.594-17.895,2.793c-48.866,9.97-91.192,37.899-119.802,76.588c-6.186,8.365-11.729,17.231-16.559,26.53
	c-3.448,6.637-6.527,13.495-9.221,20.545C6.122,151.178,1.505,175.048,1.505,200c0,70.553,36.813,132.5,92.273,167.702
	c10.159,6.447,20.943,11.995,32.241,16.536c10.918,4.388,22.312,7.843,34.089,10.246c12.887,2.629,26.228,4.011,39.892,4.011
	c3.2,0,6.381-0.083,9.545-0.232c104.533-4.95,187.883-90.754,188.925-196.267c0.007-0.666,0.025-1.328,0.025-1.996
	C398.495,175.712,394.125,152.446,386.141,130.937z"/>
<g id="letters_4_">
	<g>
		<path fillRule="evenodd" clipRule="evenodd" fill="#5CC0EB" d="M49.88,147.178c7.679,0,21.632,0,21.632,0l51.52,68.035v-68.035
			h22.613v105.695h-21.933l-51.141-67.799l0.142,67.799H49.88C49.88,252.873,49.88,181.053,49.88,147.178z"/>
		<polygon fillRule="evenodd" clipRule="evenodd" fill="#FFFFFF" points="159.897,147.127 235.854,147.127 235.854,166.934
			183.747,166.885 183.703,192.895 231.539,192.781 231.539,212.902 183.797,212.859 183.797,252.873 159.897,252.873 		"/>
		<path fillRule="evenodd" clipRule="evenodd" fill="#FFFFFF" d="M344.718,175.564c-6.232-14.506-25.444-28.266-47.477-28.266
			h-47.521v105.574h47.521c18.032,0,39.334-10.934,47.477-28.559C352.848,206.676,350.93,190.033,344.718,175.564z M290.966,232.895
			h-17.381v-65.609l17.166-0.043c17.115,0,35.099,8.643,35.099,32.836C325.85,226.998,304.918,232.895,290.966,232.895z"/>
	</g>
</g>
</svg>



<!-- second img -->

<svg version="1.1" id="Layer_1" x="0px" y="0px" width="400px" height="400px" viewBox="0 0 400 400" enableBackground="new 0 0 400 400">
<g>
  <linearGradient id="SVGID_2_" gradientUnits="userSpaceOnUse" x1="148.4102" y1="296.6006" x2="187.3408" y2="329.2672">
    <stop  offset="0" stopColor="#27AAE1"/>
    <stop  offset="1" stopColor="#1C75BC"/>
  </linearGradient>
  <path fill="url(#SVGID_2_)" d="M209.092,303.345c-12.422-12.756-29.771-20.688-48.983-20.688v68.387L209.092,303.345z"/>
	<path fill="#3399CC" stroke="#3399CC" strokeWidth="0.25" strokeMiterlimit="10" d="M326.156,149.976
		c5.899,5.181,29.911-8.056,43.921-11.113l9.316-23.906c-9.246-19.469-21.564-37.193-36.335-52.546l-13.206,33.888
		C337.191,103.25,318.588,143.333,326.156,149.976z"/>
	<path fill="#5CC0EB" stroke="#5CC0EB" strokeWidth="0.25" strokeMiterlimit="10" d="M279.901,117.724
		c9.025,4.896,41.166-27.638,49.56-21.786c0.146,0.102,0.263,0.238,0.392,0.36l13.206-33.888
		c-15.624-16.241-33.988-29.823-54.348-40.013l-16.574,42.529C279.936,71.537,271.264,113.037,279.901,117.724z"/>
	<path fill="#71C8F1" stroke="#71C8F1" strokeWidth="0.25" strokeMiterlimit="10" d="M227.672,96.588
		c9.923,2.764,33.997-36.114,43.454-32.287c0.365,0.147,0.699,0.362,1.011,0.626l16.574-42.529
		c-19.661-9.838-41.175-16.516-63.887-19.35l-16.999,43.619C217.383,50.13,218.078,93.916,227.672,96.588z"/>
	<path fill="#5CC0EB" stroke="#5CC0EB" strokeWidth="0.25" strokeMiterlimit="10" d="M160.108,72.577
		c4.025,8.177,8.019,14.928,11.931,15.109c10.335,0.475,25.09-42.805,35.124-41.199c0.226,0.035,0.445,0.101,0.662,0.18
		l16.999-43.619C216.691,2.032,208.407,1.505,200,1.505c-7.437,0-14.773,0.423-21.997,1.219l-17.895,45.918V72.577z"/>
  <linearGradient id="SVGID_1_" gradientUnits="userSpaceOnUse" x1="137.623" y1="99.3755" x2="296.7568" y2="232.9046">
    <stop  offset="0" stopColor="#58595B"/>
    <stop  offset="1" stopColor="#414042"/>
  </linearGradient>
  <path fill="url(#SVGID_1_)" stroke="#686868" strokeWidth="0.25" strokeMiterlimit="10" d="M209.092,303.345L365.23,151.3
    l4.847-12.438c-14.01,3.058-38.021,16.294-43.921,11.113c-7.568-6.643,11.035-46.726,3.696-53.678l0,0
    c-0.129-0.122-0.246-0.259-0.392-0.36c-8.394-5.852-40.534,26.683-49.56,21.786c-8.638-4.687,0.034-46.187-7.765-52.797l0,0
    c-0.312-0.264-0.646-0.479-1.011-0.626c-9.457-3.827-33.531,35.051-43.454,32.287c-9.594-2.672-10.289-46.458-19.847-49.921l0,0
    c-0.217-0.079-0.437-0.145-0.662-0.18c-10.034-1.605-24.789,41.674-35.124,41.199c-3.912-0.182-7.905-6.933-11.931-15.109v210.08
    C179.32,282.657,196.67,290.589,209.092,303.345z"/>
	<path fill="#333333" d="M398.298,191.393c-0.903-21.18-5.121-41.501-12.157-60.455c-2.02-5.444-4.274-10.774-6.747-15.981
		l-9.316,23.906L365.23,151.3L209.092,303.345l-48.983,47.699v-68.387V72.577V48.642l17.895-45.918
		c-6.05,0.668-12.021,1.594-17.895,2.793C107.634,16.223,62.703,47.64,34.199,90.851c-7.549,11.444-13.955,23.711-19.033,36.646
		c-1.009,2.571-1.96,5.172-2.863,7.794C5.311,155.575,1.505,177.342,1.505,200c0,70.554,36.813,132.501,92.273,167.702
		c10.159,6.447,20.943,11.996,32.241,16.537c10.918,4.387,22.312,7.842,34.089,10.246c12.887,2.629,26.228,4.01,39.892,4.01
		c3.2,0,6.381-0.082,9.545-0.232c90.636-4.291,165.344-69.367,184.289-155.371c1.053-4.783,1.933-9.629,2.636-14.533
		c1.325-9.264,2.025-18.729,2.025-28.358C398.495,197.115,398.42,194.248,398.298,191.393z"/>
</g>
<g id="letters_5_">
	<g>
		<path fillRule="evenodd" clipRule="evenodd" fill="#5CC0EB" d="M49.88,147.178c7.679,0,21.632,0,21.632,0l51.52,68.036v-68.036
			h22.613v105.696h-21.933l-51.141-67.8l0.142,67.8H49.88C49.88,252.874,49.88,181.053,49.88,147.178z"/>
		<polygon fillRule="evenodd" clipRule="evenodd" fill="#FFFFFF" points="159.898,147.127 235.854,147.127 235.854,166.934
			183.748,166.885 183.704,192.895 231.54,192.781 231.54,212.903 183.797,212.86 183.797,252.874 159.898,252.874 		"/>
		<path fillRule="evenodd" clipRule="evenodd" fill="#FFFFFF" d="M344.719,175.564c-6.232-14.506-25.444-28.266-47.477-28.266
			h-47.521v105.575h47.521c18.032,0,39.334-10.934,47.477-28.559C352.848,206.677,350.931,190.033,344.719,175.564z
			 M290.967,232.896h-17.381v-65.61l17.166-0.043c17.115,0,35.099,8.643,35.099,32.836
			C325.851,226.999,304.919,232.896,290.967,232.896z"/>
	</g>
</g>
</svg>


<!-- third img -->

<svg version="1.1" id="Layer_1" x="0px" y="0px"
	 width="400px" height="400px" viewBox="0 0 400 400" enableBackground="new 0 0 400 400">
<g>
  <linearGradient id="SVGID_2_" gradientUnits="userSpaceOnUse" x1="148.4102" y1="296.5996" x2="187.3408" y2="329.2663">
    <stop  offset="0" stopColor="#27AAE1"/>
    <stop  offset="1" stopColor="#1C75BC"/>
  </linearGradient>
  <path fill="url(#SVGID_2_)" d="M209.092,303.345c-12.421-12.756-29.771-20.688-48.983-20.688v68.387L209.092,303.345z"/>
	<path fill="#3399CC" stroke="#3399CC" strokeWidth="0.25" strokeMiterlimit="10" d="M319.609,144.422
		c7.922,6.493,45.611-19.423,52.771-12.079c0.061,0.062,0.1,0.144,0.156,0.21l6.857-17.597
		c-10.709-22.547-25.541-42.752-43.523-59.645l-13.949,35.793C328.338,99.029,311.98,138.175,319.609,144.422z"/>
	<path fill="#5CC0EB" stroke="#5CC0EB" strokeWidth="0.25" strokeMiterlimit="10" d="M261.688,60.674
		c9.658,3.533,1.449,48.528,10.594,53.093c9.186,4.585,40.199-29.025,48.787-23.465c0.326,0.211,0.602,0.491,0.854,0.803
		l13.949-35.793c-16.852-15.832-36.467-28.756-58.049-37.964l-16.82,43.159C261.236,60.543,261.467,60.593,261.688,60.674z"/>
	<path fill="#71C8F1" stroke="#71C8F1" strokeWidth="0.25" strokeMiterlimit="10" d="M197.155,45.052
		c10.244,1.281,12.306,46.977,22.207,49.373c9.779,2.368,31.699-35.439,41.641-33.918l16.82-43.159
		c-20.045-8.551-41.783-13.89-64.572-15.392l-16.791,43.087C196.692,45.026,196.924,45.023,197.155,45.052z"/>
	<path fill="#5CC0EB" stroke="#5CC0EB" strokeWidth="0.25" strokeMiterlimit="10" d="M160.109,85.96
		c1.136,0.926,2.253,1.453,3.348,1.466c10.108,0.119,23.011-41.653,33.003-42.383L213.25,1.956
		c-4.381-0.289-8.795-0.451-13.25-0.451c-7.437,0-14.773,0.423-21.997,1.219l-17.895,45.918V85.96z"/>
  <linearGradient id="SVGID_1_" gradientUnits="userSpaceOnUse" x1="143.9121" y1="104.8389" x2="296.6647" y2="233.0135">
    <stop  offset="0" stopColor="#58595B"/>
    <stop  offset="1" stopColor="#414042"/>
  </linearGradient>
  <path fill="url(#SVGID_1_)" stroke="#686868" strokeWidth="0.25" strokeMiterlimit="10" d="M209.092,303.345L365.23,151.3
    l7.307-18.747c-0.057-0.066-0.096-0.147-0.156-0.21c-7.16-7.344-44.85,18.572-52.771,12.079
    c-7.629-6.247,8.729-45.393,2.312-53.317l0,0c-0.252-0.312-0.527-0.592-0.854-0.803c-8.588-5.561-39.602,28.05-48.787,23.465
    c-9.145-4.564-0.936-49.56-10.594-53.093c-0.221-0.081-0.451-0.131-0.686-0.167l0,0c-9.941-1.521-31.861,36.286-41.641,33.918
    c-9.9-2.396-11.963-48.092-22.207-49.373c-0.23-0.028-0.463-0.025-0.695-0.009l0,0c-9.992,0.729-22.895,42.502-33.003,42.383
    c-1.095-0.013-2.212-0.54-3.348-1.466v196.696C179.321,282.656,196.67,290.589,209.092,303.345z"/>
  <path fill="#333333" d="M397.736,182.688c-1.561-18.05-5.529-35.408-11.596-51.751c-2.02-5.444-4.273-10.774-6.746-15.981
    l-6.857,17.597L365.23,151.3L209.092,303.345l-48.983,47.698v-68.387V85.96V48.642l17.895-45.918
    c-6.05,0.668-12.021,1.594-17.895,2.793c-55.387,11.3-102.372,45.671-130.503,92.633C11.768,127.927,1.505,162.764,1.505,200
    c0,70.553,36.813,132.5,92.272,167.702c10.16,6.447,20.944,11.995,32.242,16.536c10.918,4.388,22.312,7.843,34.089,10.246
    c12.886,2.629,26.228,4.011,39.892,4.011c3.201,0,6.38-0.083,9.544-0.232c92.795-4.395,168.896-72.503,185.549-161.552
    c1.477-7.897,2.482-15.959,2.994-24.155c0.26-4.153,0.406-8.337,0.406-12.556C398.494,194.166,398.229,188.395,397.736,182.688z"/>
</g>
<g id="letters_6_">
	<g>
		<path fillRule="evenodd" clipRule="evenodd" fill="#5CC0EB" d="M49.88,147.178c7.679,0,21.632,0,21.632,0l51.52,68.035v-68.035
			h22.613v105.695h-21.934l-51.14-67.799l0.142,67.799H49.88C49.88,252.873,49.88,181.053,49.88,147.178z"/>
		<polygon fillRule="evenodd" clipRule="evenodd" fill="#FFFFFF" points="159.898,147.127 235.854,147.127 235.854,166.934
			183.748,166.885 183.704,192.895 231.539,192.781 231.539,212.902 183.797,212.859 183.797,252.873 159.898,252.873 		"/>
		<path fillRule="evenodd" clipRule="evenodd" fill="#FFFFFF" d="M344.719,175.564c-6.232-14.506-25.445-28.266-47.479-28.266
			h-47.52v105.574h47.52c18.033,0,39.336-10.934,47.479-28.559C352.848,206.676,350.93,190.033,344.719,175.564z M290.967,232.895
			h-17.381v-65.609l17.166-0.043c17.115,0,35.098,8.643,35.098,32.836C325.85,226.998,304.918,232.895,290.967,232.895z"/>
	</g>
</g>
</svg>


<!-- fourth img -->

<svg version="1.1" id="Layer_1" x="0px" y="0px"
	 width="400px" height="400px" viewBox="0 0 400 400" enableBackground="new 0 0 400 400">
<g>
  <linearGradient id="SVGID_2_" gradientUnits="userSpaceOnUse" x1="148.4092" y1="296.5996" x2="187.3405" y2="329.2669">
    <stop  offset="0" stopColor="#27AAE1"/>
    <stop  offset="1" stopColor="#1C75BC"/>
  </linearGradient>
  <path fill="url(#SVGID_2_)" d="M209.092,303.345c-12.423-12.756-29.772-20.688-48.983-20.688v68.387L209.092,303.345z"/>
	<path fill="#3399CC" stroke="#3399CC" strokeWidth="0.25" strokeMiterlimit="10" d="M363.75,123.881
		c4.627,5.299-5.877,24.979-10.497,39.082L365.23,151.3l14.163-36.344c-2.144-4.514-4.465-8.925-6.933-13.243L363.75,123.881z"/>
	<path fill="#5CC0EB" stroke="#5CC0EB" strokeWidth="0.25" strokeMiterlimit="10" d="M325.388,46.128l-14.723,37.779
		c8.422,5.697-7.496,47.888,0.639,53.998c8.189,6.155,44.759-21.317,52.222-14.281c0.083,0.078,0.15,0.171,0.225,0.257l8.711-22.168
		C360.288,80.399,344.294,61.553,325.388,46.128z"/>
	<path fill="#71C8F1" stroke="#71C8F1" strokeWidth="0.25" strokeMiterlimit="10" d="M262.733,109.262
		c9.371,4.196,38.948-30.686,47.761-25.489c0.062,0.037,0.11,0.094,0.171,0.135l14.723-37.779
		c-17.107-13.957-36.584-25.121-57.736-32.789l-17.011,43.648C259.406,62.079,253.645,105.191,262.733,109.262z"/>
	<path fill="#5CC0EB" stroke="#5CC0EB" strokeWidth="0.25" strokeMiterlimit="10" d="M209.05,92.155
		c10.104,2.002,31.152-38.594,40.874-35.495c0.25,0.08,0.488,0.194,0.717,0.327l17.011-43.648
		c-20.618-7.475-42.827-11.621-65.982-11.812l-16.48,42.291C195.184,45.783,199.187,90.201,209.05,92.155z"/>
	<path fill="#71C8F1" stroke="#71C8F1" strokeWidth="0.25" strokeMiterlimit="10" d="M160.108,81.497
		c8.271-12.138,16.864-38.387,24.685-37.74c0.133,0.012,0.265,0.035,0.396,0.061l16.48-42.291c-0.556-0.005-1.11-0.021-1.669-0.021
		c-7.437,0-14.773,0.423-21.997,1.219l-17.895,45.918V81.497z"/>
  <linearGradient id="SVGID_1_" gradientUnits="userSpaceOnUse" x1="136.5439" y1="98.0195" x2="295.6927" y2="231.5612">
    <stop  offset="0" stopColor="#58595B"/>
    <stop  offset="1" stopColor="#414042"/>
  </linearGradient>
  <path fill="url(#SVGID_1_)" stroke="#686868" strokeWidth="0.25" strokeMiterlimit="10" d="M209.092,303.345l144.161-140.382
    c4.694-14.332,15.478-34.433,10.272-39.339c-7.463-7.036-44.032,20.437-52.222,14.281c-8.135-6.11,7.783-48.301-0.639-53.998l0,0
    c-0.061-0.041-0.108-0.098-0.171-0.135c-8.812-5.196-38.39,29.686-47.761,25.489c-9.089-4.07-3.327-47.183-12.093-52.274l0,0
    c-0.229-0.133-0.467-0.247-0.717-0.327c-9.722-3.099-30.771,37.497-40.874,35.495c-9.863-1.954-13.866-46.372-23.861-48.338l0,0
    c-0.131-0.025-0.263-0.049-0.396-0.061c-7.82-0.646-16.413,25.603-24.685,37.74v201.159
    C179.319,282.656,196.669,290.589,209.092,303.345z"/>
  <path fill="#333333" d="M398.405,194.221c-0.214-7.481-0.85-14.855-1.87-22.107c-2.006-14.268-5.521-28.05-10.395-41.176
    c-2.021-5.444-4.274-10.774-6.747-15.981L365.23,151.3l-11.978,11.663L209.092,303.345l-48.983,47.698v-68.387V81.497V48.642
    l17.895-45.918c-6.051,0.668-12.021,1.594-17.895,2.793c-40.062,8.173-75.725,28.42-103.042,56.765
    c-2.362,2.45-4.665,4.958-6.899,7.526c-9.909,11.396-18.532,23.936-25.661,37.39C9.83,134.894,1.505,166.473,1.505,200
    c0,70.553,36.813,132.5,92.273,167.702c10.159,6.447,20.943,11.995,32.24,16.536c10.919,4.388,22.312,7.843,34.09,10.246
    c12.887,2.629,26.228,4.011,39.892,4.011c3.2,0,6.381-0.083,9.545-0.232c95.905-4.542,173.978-77.142,187.02-170.577
    c1.263-9.05,1.931-18.289,1.931-27.686C398.495,198.066,398.461,196.141,398.405,194.221z"/>
</g>
<g id="letters_7_">
	<g>
		<path fillRule="evenodd" clipRule="evenodd" fill="#5CC0EB" d="M49.88,147.178c7.679,0,21.633,0,21.633,0l51.519,68.035v-68.035
			h22.613v105.695h-21.933l-51.141-67.799l0.142,67.799H49.88C49.88,252.873,49.88,181.053,49.88,147.178z"/>
		<polygon fillRule="evenodd" clipRule="evenodd" fill="#FFFFFF" points="159.897,147.127 235.854,147.127 235.854,166.934
			183.747,166.885 183.703,192.895 231.538,192.781 231.538,212.902 183.797,212.859 183.797,252.873 159.897,252.873 		"/>
		<path fillRule="evenodd" clipRule="evenodd" fill="#FFFFFF" d="M344.718,175.564c-6.232-14.506-25.444-28.266-47.477-28.266
			h-47.52v105.574h47.52c18.032,0,39.334-10.934,47.477-28.559C352.848,206.676,350.93,190.033,344.718,175.564z M290.966,232.895
			h-17.381v-65.609l17.166-0.043c17.115,0,35.099,8.643,35.099,32.836C325.85,226.998,304.917,232.895,290.966,232.895z"/>
	</g>
</g>
</svg>
