<svg version="1.1" id="Layer_1" x="0px" y="0px"
	 width="400px" height="400px" viewBox="0 0 400 400" enable-background="new 0 0 400 400" xml:space="preserve">
<path fill="#333333" d="M364.799,147.704L212.973,299.473l-12.565,12.58l-40.5,40.515V295.28v-17.768V65.522v-1.896l19.542-47.07
	l5.868-14.132C82.742,9.952,1.841,95.497,1.841,199.997c0,109.437,88.722,198.166,198.159,198.166
	c109.429,0,198.159-88.729,198.159-198.166c0-30.197-6.776-58.812-18.863-84.429l-12.521,30.147L364.799,147.704z"/>
<path fill="#5CC0EB" stroke="#5CC0EB" stroke-width="0.25" stroke-miterlimit="10" d="M159.907,295.28v57.287l40.5-40.515
	l12.565-12.58c-13.581-13.566-32.335-21.96-53.065-21.96V295.28z"/>
<path fill="#686868" stroke="#686868" stroke-width="0.25" stroke-miterlimit="10" d="M327.368,98.988
	c-1.138,0.522-22.317,13.71-25.323,15.363c-2.983,1.625-10.031,5.367-13.738,2.212c-3.764-3.134-3.478-15.471-3.621-25.732
	c-0.143-10.268,0.229-25.846-5.538-28.837c-0.673-0.33-1.546-0.33-2.576-0.028c-7.835,2.225-24.701,20.973-29.381,25.259
	c-5.323,4.873-10.189,7.935-14.305,6.976c-4.106-0.973-8.479-19.549-9.824-25.316c-1.288-5.575-5.065-23.707-10.94-25.811
	c-0.164-0.079-0.379-0.136-0.572-0.172c-6.219-1.044-18.933,21.06-19.385,21.725c-0.464,0.672-10.783,19.306-17.538,20.072
	c-3.892,0.43-10.146-10.197-14.718-19.177v211.99c20.73,0,39.484,8.394,53.065,21.96l151.826-151.769
	c-9.072,3.191-22.733,7.628-26.568,4.064c-5.087-4.708,2.09-28.744,2.763-31.964c0.673-3.241,4.171-19.327,0.751-23.062
	c-0.645-0.68-1.474-1.052-2.447-1.209C334.989,94.831,328.271,98.552,327.368,98.988z"/>
<path fill="#71C8F1" stroke="#71C8F1" stroke-width="0.25" stroke-miterlimit="10" d="M223.062,68.885
	c1.346,5.767,5.718,24.343,9.824,25.316c4.115,0.959,8.981-2.104,14.305-6.976c4.68-4.287,21.546-23.034,29.381-25.259
	l15.807-37.295C272.851,14.374,251.398,7.226,228.707,3.92l-5.337,12.636l-11.249,26.519
	C217.996,45.178,221.773,63.311,223.062,68.885z"/>
<path fill="#5CC0EB" stroke="#5CC0EB" stroke-width="0.25" stroke-miterlimit="10" d="M292.378,24.671l-15.807,37.295
	c1.03-0.301,1.903-0.301,2.576,0.028c5.768,2.991,5.396,18.569,5.538,28.837c0.144,10.261-0.143,22.598,3.621,25.732
	c3.707,3.155,10.755-0.587,13.738-2.212c3.006-1.653,24.186-14.84,25.323-15.363c0.902-0.437,7.621-4.157,11.929-3.456
	l10.605-25.044C333.809,51.848,314.295,36.263,292.378,24.671z"/>
<path fill="#5CC0EB" stroke="#5CC0EB" stroke-width="0.25" stroke-miterlimit="10" d="M159.907,63.626v1.896
	c4.573,8.979,10.827,19.606,14.718,19.177c6.755-0.766,17.074-19.399,17.538-20.072c0.452-0.665,13.167-22.769,19.385-21.725
	c0.193,0.036,0.408,0.093,0.572,0.172l11.249-26.519l5.337-12.636c-9.381-1.36-18.94-2.083-28.707-2.083
	c-4.931,0-9.803,0.236-14.683,0.587l-5.868,14.132L159.907,63.626z"/>
<path fill="#3399CC" stroke="#3399CC" stroke-width="0.25" stroke-miterlimit="10" d="M339.297,95.532
	c0.974,0.157,1.803,0.53,2.447,1.209c3.42,3.735-0.078,19.821-0.751,23.062c-0.673,3.22-7.85,27.256-2.763,31.964
	c3.835,3.563,17.496-0.874,26.568-4.064l1.976-1.989l12.521-30.147c-7.728-16.393-17.673-31.534-29.394-45.08L339.297,95.532z"/>
<g id="letters">
	<g>
		<path fill-rule="evenodd" clip-rule="evenodd" fill="#5CC0EB" d="M49.89,147.181c7.679,0,21.632,0,21.632,0l51.52,68.035v-68.035
			h22.612v105.695h-21.932l-51.141-67.799l0.142,67.799H49.89C49.89,252.876,49.89,181.056,49.89,147.181z"/>
		<polygon fill-rule="evenodd" clip-rule="evenodd" fill="#FFFFFF" points="159.907,147.131 235.863,147.131 235.863,166.938
			183.757,166.888 183.713,192.898 231.549,192.784 231.549,212.905 183.807,212.862 183.807,252.876 159.907,252.876 		"/>
		<path fill-rule="evenodd" clip-rule="evenodd" fill="#FFFFFF" d="M344.728,175.567c-6.232-14.504-25.444-28.265-47.477-28.265
			H249.73v105.573h47.521c18.032,0,39.334-10.934,47.477-28.558C352.857,206.68,350.939,190.036,344.728,175.567z M290.976,232.897
			h-17.381v-65.609l17.166-0.042c17.115,0,35.099,8.643,35.099,32.836C325.859,227.001,304.928,232.897,290.976,232.897z"/>
	</g>
</g>
</svg>
